<svg xmlns="http://www.w3.org/2000/svg" shape-rendering="geometricPrecision" text-rendering="geometricPrecision" image-rendering="optimizeQuality" fill-rule="evenodd" clip-rule="evenodd" viewBox="0 0 385 511.595"><path d="M220.739 19.147h76.703c13.402.411 26.627 4.43 37.48 14.86 11.878 11.414 30.986 36.379 39.313 51.06 6.008 10.596 8.926 22.657 10.765 35.118l-.284.053v326.704H.02V106.309c0-14.163-.88-21.248 9.153-21.447a11 11 0 01-2.402-6.866v-19.62c0-6.09 4.982-11.073 11.073-11.073h3.611V5.417c0-2.98 2.437-5.417 5.416-5.417h113.624c2.979 0 5.417 2.437 5.417 5.417v41.886h2.286c6.091 0 11.074 4.983 11.074 11.073v19.62c0 2.803-1.056 5.371-2.79 7.327l4.971-.448 7.459-5.292c6.575-4.663 6.347-4.36 10.524-11.253l19.472-32.124c3.153-5.291 6.655-9.604 10.635-12.582 3.365-2.519 7.072-4.083 11.196-4.477zM199.605 219.12c6.079 16.133 14.542 28.705 22.138 39.991 10.93 16.239 20.237 30.064 20.237 49.063 0 6.663-1.234 12.928-3.705 18.79-2.461 5.845-6.089 11.14-10.883 15.88l-.451.411c-4.711 4.547-9.904 8.002-15.587 10.351-5.877 2.433-12.163 3.653-18.859 3.653-6.701 0-12.985-1.22-18.852-3.653-5.809-2.407-11.131-5.998-15.966-10.762-4.829-4.77-8.472-10.064-10.926-15.878-2.474-5.861-3.711-12.127-3.711-18.792 0-19.378 9.304-33.306 20.383-49.891 7.433-11.129 15.748-23.574 22.099-39.672a7.467 7.467 0 019.67-4.236 7.454 7.454 0 014.413 4.745zm-35.868 82.906a3.824 3.824 0 117.554-1.198c1.091 6.797 3.398 12.653 6.553 17.272 3.145 4.608 7.128 7.957 11.554 9.732a3.828 3.828 0 01-2.849 7.107c-5.844-2.346-11.025-6.654-15.032-12.522-3.761-5.51-6.503-12.425-7.78-20.39v-.001zM217 88.867l5.832-18.165c4.453-8.739 10.601-14.427 19.499-15.165l50.407 1.53c10.065.19 13.788 3.411 21.652 10.017 14.073 11.821 21.163 23.664 28.999 44.628 4.988 13.344 4.223 24.765-2.024 37.789L217 88.867zM99.593 170.439h185.834c11.862 0 21.567 9.706 21.567 21.567v187.096c0 11.859-9.707 21.566-21.567 21.566H99.593c-11.86 0-21.567-9.705-21.567-21.566V192.006c0-11.863 9.705-21.567 21.567-21.567zM31.777 7.81h7.927v40.728h-7.927V7.81zM20.079 57.522h127.209c1.022 0 1.859.839 1.859 1.859v16.402c0 1.022-.839 1.86-1.859 1.86H20.079a1.866 1.866 0 01-1.859-1.86V59.381c0-1.021.836-1.859 1.859-1.859zM127.661 7.81h7.929v40.728h-7.929V7.81zm-19.177 0h7.929v40.728h-7.929V7.81zm-19.176 0h7.928v40.728h-7.928V7.81zm-19.178 0h7.928v40.728H70.13V7.81zm-19.177 0h7.928v40.728h-7.928V7.81zm333.763 445.735v23.435c0 19.039-15.577 34.615-34.615 34.615h-3.495V483.78a3.302 3.302 0 10-6.603 0v27.815h-26.547V483.78a3.302 3.302 0 10-6.603 0v27.815h-26.546V483.78a3.302 3.302 0 10-6.603 0v27.815h-26.546V483.78a3.302 3.302 0 10-6.603 0v27.815h-26.547V483.78a3.302 3.302 0 10-6.603 0v27.815h-26.546V483.78a3.302 3.302 0 10-6.603 0v27.815h-26.547V483.78a3.302 3.302 0 10-6.603 0v27.815h-26.547V483.78a3.302 3.302 0 10-6.602 0v27.815H81.41V483.78a3.302 3.302 0 10-6.602 0v27.815H48.26V483.78a3.302 3.302 0 10-6.602 0v27.67C18.443 509.601.02 490.029.02 466.359v-12.814h384.696z"/></svg>